<?xml version="1.0" encoding="utf-8"?>
<!-- Generator: Adobe Illustrator 18.1.1, SVG Export Plug-In . SVG Version: 6.00 Build 0)  -->
<!DOCTYPE svg PUBLIC "-//W3C//DTD SVG 1.1//EN" "http://www.w3.org/Graphics/SVG/1.1/DTD/svg11.dtd">
<svg version="1.1" id="Layer_1" xmlns="http://www.w3.org/2000/svg" xmlns:xlink="http://www.w3.org/1999/xlink" x="0px" y="0px"
	 width="65.3px" height="65.3px" viewBox="8 -7.3 65.3 65.3" enable-background="new 8 -7.3 65.3 65.3" xml:space="preserve">
<g>
	<path fill="#231F20" d="M25.7,11.6c0.9,0,1.6-0.7,1.6-1.6l0,0V9.9c0-0.1,0-0.1,0-0.1c0.1-2.2,1-4.5,2.4-6.1c1.8-1.9,4-3.2,6.4-4
		c2.7-0.8,5.5-0.9,8.2-0.3C46.8,0,49.1,1.2,50.9,3c0.5,0.5,0.9,0.9,1.3,1.4s0.8,1,1,1.7c0,0,0.1,0.1,0.1,0.3s0,0.1,0,0.1
		c0,0.1,0.1,0.3,0.1,0.4c0.1,0.4,0.1,0.6,0.3,1c0.1,0.1,0.1,0.4,0.1,0.5c0,0,0,0.1,0,0.3s0,0.1,0,0.1c0,0.4,0,0.6,0,1
		c0,0.1,0,0.1,0,0.1V10l0,0c0,0.9,0.7,1.6,1.6,1.6h0.1c0.9,0,1.6-0.7,1.6-1.6V9.7c0-0.1,0-0.1,0-0.3c-0.3-6.2-5.2-11.1-11-12.9
		C40-5.3,32.5-3.9,27.9,0.8c-2.3,2.4-3.7,5.5-3.9,8.8v0.1V10C24,10.9,24.8,11.6,25.7,11.6L25.7,11.6z"/>
	<path fill="#231F20" d="M59.9,20.4c-1.8-1.7-4.2-2.5-6.8-2.5c-5.6,0-11.2,0-16.8,0c-2.7,0-5.2,0-7.9,0c-1.7,0-3.3,0.3-4.8,1
		c-2.5,1.3-4.5,3.7-4.8,6.6c-0.1,1.5,0,3.2,0,4.7s0,2.9,0,4.5c0,0.1,0,0.1,0,0.3c0.1,8.7,6.5,15.7,14.4,18.4
		c8.3,2.8,18.2,0.6,24.2-5.9c3.2-3.4,5-7.8,5.1-12.4c0-0.1,0-0.1,0-0.3c0-2.2,0-4.2,0-6.4c0-1,0.1-1.8,0-2.5
		C62.3,23.7,61.4,21.8,59.9,20.4z M59.2,25.7c0,0.1,0,0.4,0,0.5c0,1.9,0,4,0,5.9c0,0.8,0,1.5,0,2.3v0.1c0,0.5-0.1,1-0.1,1.4
		c0,0.6,0,0.6-0.1,1.1c-0.1,0.9-0.4,1.8-0.8,2.5c-0.3,0.8-0.6,1.4-1,2.3c-0.2,0.4-0.4,0.7-0.6,1c0,0,0,0-0.1,0.1
		c-0.2,0.4-0.5,0.6-0.6,0.9c-2.4,3.1-5.5,5-8.8,6.1c-7.3,2.4-15.7,0.6-20.9-5c-0.8-0.8-1.1-1.3-1.7-2.2c-0.3-0.4-0.5-0.9-0.8-1.3
		c-0.1-0.3-0.3-0.5-0.4-0.8L23,40.2c-0.4-0.9-0.6-1.9-0.9-2.9c0-0.3-0.1-0.5-0.1-0.8v-0.1c0-0.1,0-0.3,0-0.4c0-0.5-0.1-1.1-0.1-1.7
		v-0.1c0-2.7,0-5.2,0-7.9c0-1.8,0.9-3.3,2.3-4.3c1.3-0.9,2.5-1.1,4.1-1.1c6.1,0,12.1,0,18.2,0c2.2,0,4.5,0,6.6,0
		c0.9,0,1.5,0.1,2.5,0.5c0.1,0.1,0.5,0.3,0.9,0.5c0.5,0.3,0.5,0.4,0.9,0.6c0.1,0.1,0.3,0.3,0.4,0.4l0.3,0.3c0.3,0.4,0.5,0.6,0.6,1
		c0,0,0.1,0.3,0.1,0.4s0.1,0.4,0.1,0.5s0,0.3,0.1,0.4C59.2,25.6,59.2,25.6,59.2,25.7z"/>
	<path fill="#231F20" d="M40.5,31.1c-1.4,0-2.7,1.2-2.7,2.7c0,0.8,0.4,1.6,1,2.1c0.2,0.2,0.4,0.6,0.4,0.9v2.9c0.2,0.6,0.6,1,1.3,1
		s1.2-0.4,1.3-1v-2.8c0-0.3,0.2-0.7,0.5-0.9c0.6-0.5,1-1.3,1-2.1C43.3,32.3,42,31.1,40.5,31.1z"/>
</g>
</svg>
