<?xml version="1.0" encoding="utf-8"?>
<!-- Generator: Adobe Illustrator 18.1.1, SVG Export Plug-In . SVG Version: 6.00 Build 0)  -->
<!DOCTYPE svg PUBLIC "-//W3C//DTD SVG 1.1//EN" "http://www.w3.org/Graphics/SVG/1.1/DTD/svg11.dtd">
<svg version="1.1" id="Layer_1" xmlns="http://www.w3.org/2000/svg" xmlns:xlink="http://www.w3.org/1999/xlink" x="0px" y="0px"
	 width="500px" height="500px" viewBox="0 0 500 500" enable-background="new 0 0 500 500" xml:space="preserve">
<g>
	<g>
		<path d="M250,479L21,250L250,21l229,229L250,479z M55,250l195,195l195-195L250,55L55,250z"/>
	</g>
	<g>
		<path d="M204,286c13,0,24-5,33-16l17,18c-14,15-30,23-48,23c-19,0-34-6-46-18c-12-12-18-27-18-45s6-33,18-45c12-12,27-18,45-18
			c20,0,36,8,50,23l-17,19c-9-11-19-16-32-16c-10,0-19,3-26,10c-7,7-11,16-11,27c0,11,3,20,10,27C186,282,194,286,204,286z"/>
		<path d="M358,189v24h-56v26h53v24h-53v47h-27V189H358z"/>
	</g>
</g>
</svg>
